<?xml version="1.0" standalone="no"?>
<!DOCTYPE svg PUBLIC "-//W3C//DTD SVG 20010904//EN"
 "http://www.w3.org/TR/2001/REC-SVG-20010904/DTD/svg10.dtd">
<svg version="1.0" xmlns="http://www.w3.org/2000/svg"
 width="250.000000pt" height="250.000000pt" viewBox="0 0 250.000000 250.000000"
 preserveAspectRatio="xMidYMid meet">
<metadata>
Created by potrace 1.11, written by Peter Selinger 2001-2013
</metadata>
<g transform="translate(0.000000,250.000000) scale(0.100000,-0.100000)"
fill="#000000" stroke="none">
<path d="M1142 2461 c-15 -9 -15 -98 0 -117 4 -6 22 -10 40 -8 37 5 50 13 22
15 -10 1 -26 2 -34 3 -8 0 -16 12 -18 24 -3 20 0 23 16 18 11 -4 23 -2 27 4 4
6 -4 10 -19 10 -19 0 -26 5 -26 20 0 11 5 20 10 20 6 0 10 5 10 10 0 12 -10
13 -28 1z"/>
<path d="M1180 2460 c0 -5 7 -10 15 -10 8 0 15 5 15 10 0 6 -7 10 -15 10 -8 0
-15 -4 -15 -10z"/>
<path d="M1230 2405 c0 -72 17 -90 22 -22 l3 42 29 -49 c34 -56 43 -49 47 34
4 66 -14 74 -21 10 l-5 -45 -28 48 c-15 26 -32 47 -37 47 -6 0 -10 -29 -10
-65z"/>
<path d="M1039 2453 c-29 -7 -41 -49 -24 -88 11 -29 19 -35 43 -35 32 0 49 15
49 42 0 18 -23 32 -38 22 -15 -9 -10 -24 6 -18 10 4 15 0 15 -10 0 -28 -31
-32 -52 -7 -22 28 -23 54 -2 72 13 10 19 10 36 0 21 -13 34 -9 24 7 -7 12 -36
19 -57 15z"/>
<path d="M1369 2453 c22 -4 23 -8 18 -64 -8 -75 8 -78 18 -3 6 49 9 55 26 51
10 -3 22 -1 25 4 3 5 4 9 2 9 -82 7 -108 8 -89 3z"/>
<path d="M1476 2429 c-23 -99 -24 -109 -10 -109 8 0 13 3 12 8 -1 4 2 31 6 60
8 54 2 85 -8 41z"/>
<path d="M1527 2433 c-4 -6 -9 -23 -12 -39 -2 -16 -7 -41 -10 -56 -3 -16 -1
-28 5 -28 5 0 10 10 11 23 0 12 4 31 8 41 6 16 11 10 26 -32 11 -29 22 -52 26
-52 14 0 47 119 34 123 -6 3 -11 -3 -12 -12 -1 -9 -7 -29 -13 -46 l-12 -30
-15 50 c-16 54 -27 72 -36 58z"/>
<path d="M895 2418 c-6 -16 -1 -45 8 -54 4 -4 7 -18 7 -30 0 -13 5 -26 11 -30
8 -5 10 1 7 20 -7 33 16 35 49 4 26 -24 32 -8 6 17 -13 13 -14 21 -6 34 17 28
-3 51 -43 51 -19 0 -37 -6 -39 -12z m63 -25 c4 -29 -35 -39 -44 -11 -4 13 -1
24 7 29 20 12 34 6 37 -18z"/>
<path d="M809 2390 c-2 -24 -1 -114 1 -125 1 -5 5 1 9 15 5 18 15 26 34 28 15
2 27 -1 27 -7 0 -6 5 -11 11 -11 13 0 -13 42 -53 85 -19 21 -28 25 -29 15z
m41 -62 c0 -4 -7 -8 -15 -8 -10 0 -15 10 -15 28 1 26 1 26 15 8 8 -11 15 -23
15 -28z"/>
<path d="M1669 2362 c-51 -56 -62 -72 -56 -79 4 -4 13 1 20 9 17 22 57 6 57
-22 0 -12 4 -19 8 -16 9 5 9 122 1 131 -3 2 -17 -8 -30 -23z m17 -50 c-4 -3
-11 -1 -18 6 -8 8 -8 15 3 28 13 16 14 16 17 -5 2 -13 1 -25 -2 -29z"/>
<path d="M1791 2302 c-32 -65 -34 -78 -9 -89 58 -26 119 52 79 101 -25 30 -51
26 -70 -12z m64 -12 c7 -21 -21 -70 -39 -70 -33 1 -38 17 -17 58 22 43 45 48
56 12z"/>
<path d="M655 2291 c4 -23 8 -49 10 -59 2 -9 4 -23 4 -29 1 -7 6 -13 11 -13 6
0 8 11 4 25 -5 20 -2 25 20 31 16 4 32 1 41 -6 8 -7 15 -8 15 -3 0 10 -84 85
-102 92 -6 2 -7 -13 -3 -38z m44 -32 c-15 -9 -29 6 -29 34 0 15 2 15 21 -4 17
-17 19 -23 8 -30z"/>
<path d="M570 2304 c0 -8 5 -12 10 -9 6 3 10 10 10 16 0 5 -4 9 -10 9 -5 0
-10 -7 -10 -16z"/>
<path d="M585 2281 c-3 -6 10 -33 28 -62 19 -28 37 -47 39 -42 7 12 -59 116
-67 104z"/>
<path d="M1199 2276 c-2 -2 -33 -6 -69 -10 -126 -11 -276 -57 -396 -121 -322
-171 -547 -494 -592 -850 -8 -64 -7 -259 1 -307 l7 -38 -75 0 -75 0 0 -258 0
-259 193 1 192 1 65 -65 c156 -156 321 -251 528 -306 133 -35 342 -44 463 -20
244 48 418 138 594 305 l90 86 188 0 187 -1 0 258 0 258 -67 0 -68 0 0 182 c0
199 -4 231 -42 352 -141 452 -560 774 -1021 785 -47 1 -89 4 -93 6 -3 3 -8 3
-10 1z m-269 -2094 c0 -5 -7 -9 -15 -9 -8 0 -12 4 -9 9 3 4 9 8 15 8 5 0 9 -4
9 -8z m77 -27 c0 -8 -4 -12 -9 -9 -5 3 -6 10 -3 15 9 13 12 11 12 -6z m94 -22
c13 -17 13 -17 -6 -3 -11 8 -22 16 -24 17 -2 2 0 3 6 3 6 0 17 -8 24 -17z m62
-8 c-3 -9 -8 -14 -10 -11 -3 3 -2 9 2 15 9 16 15 13 8 -4z m63 -7 c3 -4 -1 -5
-10 -4 -8 1 -18 5 -22 8 -3 4 1 5 10 4 8 -1 18 -5 22 -8z m78 4 c3 -5 -1 -9
-9 -9 -8 0 -12 4 -9 9 3 4 7 8 9 8 2 0 6 -4 9 -8z"/>
<path d="M1886 2234 c-14 -26 -26 -50 -26 -54 0 -11 46 -40 62 -40 7 0 1 8
-14 18 -31 18 -32 21 -18 42 8 13 13 13 31 2 11 -7 23 -11 26 -8 3 2 -4 11
-16 18 -12 7 -21 18 -21 25 0 21 20 25 46 8 14 -9 28 -14 30 -12 6 6 -50 47
-64 47 -6 0 -22 -21 -36 -46z"/>
<path d="M506 2229 l-27 -21 37 -47 c21 -25 39 -48 41 -50 2 -2 6 -1 10 2 3 4
-2 16 -12 27 -17 18 -17 20 -1 26 10 4 28 2 41 -4 30 -14 42 -2 13 12 -12 6
-26 26 -30 44 -10 38 -33 42 -72 11z m59 -10 c4 -5 -1 -19 -11 -30 -13 -14
-20 -16 -31 -8 -7 6 -13 17 -13 24 0 22 44 33 55 14z"/>
<path d="M1985 2200 c-4 -11 1 -32 11 -50 10 -16 15 -32 11 -36 -11 -11 -39 5
-44 26 -3 11 -9 18 -13 15 -15 -9 2 -43 27 -54 21 -10 29 -9 40 2 12 12 12 19
-3 50 -10 20 -15 40 -11 43 12 12 37 -5 37 -26 0 -11 5 -20 10 -20 19 0 10 39
-12 54 -30 21 -45 20 -53 -4z"/>
<path d="M427 2165 l-28 -25 45 -47 45 -47 26 24 c14 13 25 28 25 33 0 6 -11
0 -24 -13 -23 -21 -26 -21 -41 -6 -16 15 -15 18 7 36 25 21 18 26 -14 9 -34
-18 -46 6 -18 36 30 32 14 32 -23 0z"/>
<path d="M2056 2116 c-20 -23 -36 -48 -36 -53 0 -6 14 -16 31 -23 38 -16 74 0
88 41 8 23 6 33 -10 54 -11 14 -24 25 -29 25 -5 0 -25 -20 -44 -44z m64 -34
c-12 -20 -24 -27 -45 -27 -38 0 -38 14 -1 55 26 30 29 31 44 16 15 -15 15 -19
2 -44z"/>
<path d="M350 2089 c-31 -37 -39 -60 -14 -37 18 16 21 15 58 -18 21 -19 42
-32 45 -28 3 3 -11 21 -32 40 -42 38 -45 49 -19 63 13 8 14 10 2 10 -8 0 -26
-13 -40 -30z"/>
<path d="M2141 2038 c-23 -22 -41 -44 -41 -47 0 -10 44 -51 54 -51 4 0 -2 12
-14 27 -19 24 -19 28 -5 42 15 15 18 14 35 -9 23 -29 27 -15 5 17 -12 17 -12
23 -1 32 10 8 17 6 31 -9 26 -28 39 -25 18 5 -28 38 -39 37 -82 -7z"/>
<path d="M290 2023 c1 -15 99 -83 105 -73 3 5 3 10 -2 10 -4 0 -26 16 -47 35
-38 34 -56 43 -56 28z"/>
<path d="M251 1972 c-12 -17 -21 -34 -21 -39 1 -10 87 -63 103 -63 7 0 1 9
-13 20 -22 17 -23 22 -12 39 18 31 14 39 -7 13 -12 -13 -25 -20 -35 -16 -20 8
-20 14 0 42 9 13 14 26 11 28 -3 3 -14 -8 -26 -24z"/>
<path d="M2270 1951 c0 -5 5 -13 10 -16 6 -4 -8 -20 -31 -37 -55 -40 -42 -48
15 -8 51 34 55 44 26 60 -12 7 -20 7 -20 1z"/>
<path d="M206 1901 c-3 -5 11 -20 32 -32 l37 -24 -54 -5 c-30 -3 -56 -9 -57
-15 -2 -5 21 -22 51 -38 30 -15 55 -23 55 -17 0 6 -16 18 -35 27 -19 9 -35 19
-35 23 0 3 20 5 44 4 40 -2 77 9 66 19 -35 28 -100 65 -104 58z"/>
<path d="M2311 1864 c-23 -17 -27 -44 -9 -62 9 -9 8 -12 -4 -12 -9 0 -20 5
-23 10 -3 6 -12 10 -18 10 -7 -1 -2 -9 11 -20 19 -15 28 -17 52 -8 39 13 62
45 50 68 -14 26 -35 30 -59 14z m44 -29 c0 -23 -34 -33 -46 -14 -10 17 9 41
30 37 9 -2 16 -12 16 -23z"/>
<path d="M124 1755 c-14 -22 -15 -30 -4 -50 20 -38 92 -49 110 -16 15 29 13
39 -15 66 -32 33 -70 32 -91 0z m80 -11 c19 -19 21 -50 4 -56 -20 -7 -60 6
-71 23 -25 40 32 68 67 33z"/>
<path d="M2360 1766 c-6 -6 -6 -14 1 -23 16 -18 3 -43 -22 -43 -18 0 -20 4
-15 25 4 14 2 25 -3 25 -16 0 -19 -40 -4 -55 17 -18 28 -19 54 -5 21 12 25 40
7 58 -9 9 -7 12 9 12 13 0 24 -8 28 -20 3 -11 10 -20 15 -20 4 0 3 13 -3 30
-8 22 -17 29 -34 28 -13 -2 -28 -7 -33 -12z"/>
<path d="M2426 1680 c28 -11 35 -22 24 -40 -8 -13 -38 -8 -97 16 -7 3 -13 -1
-13 -10 0 -24 22 -72 27 -59 2 7 -1 21 -7 32 -12 23 -8 26 19 11 56 -29 97
-13 85 34 -5 20 -12 26 -33 25 -24 0 -25 -1 -5 -9z"/>
<path d="M82 1658 c-20 -20 -14 -66 10 -79 52 -28 98 -13 98 31 0 29 -12 45
-24 33 -3 -3 -1 -12 4 -18 16 -19 1 -45 -25 -45 -13 0 -33 9 -46 19 -20 16
-22 23 -13 38 6 10 16 18 22 18 6 0 14 3 18 8 4 4 -2 7 -12 7 -11 0 -25 -5
-32 -12z"/>
</g>
</svg>
